<svg width="720" height="720" viewBox="0 0 720 720" fill="none" xmlns="http://www.w3.org/2000/svg">
<g clip-path="url(#clip0_1493_34)">
<path d="M720 0H0V720H720V0Z" fill="#C9C9C9"/>
<path d="M324 135.922H335.931V142.518H336.707C337.289 141.354 338.065 140.287 339.035 139.317C340.005 138.347 341.072 137.506 342.236 136.795C343.465 136.084 344.758 135.534 346.116 135.146C347.539 134.758 348.929 134.564 350.287 134.564C351.968 134.564 353.391 134.726 354.555 135.049C355.784 135.372 356.818 135.793 357.659 136.31L354.264 147.853C353.488 147.465 352.615 147.174 351.645 146.98C350.74 146.721 349.608 146.592 348.25 146.592C346.504 146.592 344.92 146.948 343.497 147.659C342.074 148.306 340.846 149.243 339.811 150.472C338.841 151.701 338.065 153.156 337.483 154.837C336.966 156.454 336.707 158.232 336.707 160.172V183.452H324V135.922ZM390.901 178.408H390.125C388.637 180.219 386.827 181.771 384.693 183.064C382.623 184.357 379.94 185.004 376.642 185.004C374.184 185.004 371.856 184.584 369.658 183.743C367.524 182.967 365.648 181.868 364.032 180.445C362.415 179.022 361.154 177.309 360.249 175.304C359.343 173.299 358.891 171.101 358.891 168.708C358.891 166.251 359.376 164.052 360.346 162.112C361.316 160.107 362.674 158.394 364.42 156.971C366.166 155.548 368.203 154.481 370.531 153.77C372.923 152.994 375.51 152.606 378.291 152.606C381.395 152.606 383.949 152.865 385.954 153.382C387.958 153.835 389.607 154.32 390.901 154.837V153.382C390.901 150.86 389.898 148.791 387.894 147.174C385.889 145.493 383.399 144.652 380.425 144.652C376.027 144.652 372.309 146.495 369.27 150.181L360.055 143.876C365.099 137.539 371.986 134.37 380.716 134.37C388.088 134.37 393.714 136.116 397.594 139.608C401.474 143.035 403.414 148.144 403.414 154.934V183.452H390.901V178.408ZM390.901 164.149C389.413 163.438 387.861 162.888 386.245 162.5C384.693 162.047 382.979 161.821 381.104 161.821C378.064 161.821 375.704 162.5 374.023 163.858C372.406 165.151 371.598 166.768 371.598 168.708C371.598 170.648 372.374 172.2 373.926 173.364C375.542 174.528 377.385 175.11 379.455 175.11C381.136 175.11 382.688 174.819 384.111 174.237C385.533 173.59 386.73 172.782 387.7 171.812C388.734 170.777 389.51 169.613 390.028 168.32C390.61 166.962 390.901 165.572 390.901 164.149ZM413.517 114H426.224V151.83H426.806L442.714 135.922H458.428V136.698L440.774 153.867L459.883 182.676V183.452H444.848L431.85 162.597L426.224 168.126V183.452H413.517V114ZM482.824 185.004C479.72 185.004 476.939 184.616 474.482 183.84C472.089 183.064 469.988 182.062 468.177 180.833C466.431 179.54 464.944 178.085 463.715 176.468C462.486 174.787 461.549 173.105 460.902 171.424L472.251 166.574C473.35 169.031 474.805 170.874 476.616 172.103C478.491 173.267 480.561 173.849 482.824 173.849C485.152 173.849 486.995 173.429 488.353 172.588C489.711 171.747 490.39 170.745 490.39 169.581C490.39 168.288 489.808 167.253 488.644 166.477C487.545 165.636 485.605 164.893 482.824 164.246L476.131 162.791C474.644 162.468 473.092 161.95 471.475 161.239C469.923 160.528 468.5 159.622 467.207 158.523C465.914 157.424 464.847 156.098 464.006 154.546C463.165 152.994 462.745 151.183 462.745 149.114C462.745 146.786 463.23 144.717 464.2 142.906C465.235 141.095 466.625 139.576 468.371 138.347C470.117 137.054 472.154 136.084 474.482 135.437C476.875 134.726 479.429 134.37 482.145 134.37C486.672 134.37 490.713 135.275 494.27 137.086C497.827 138.832 500.446 141.645 502.127 145.525L491.166 149.987C490.261 148.112 488.935 146.754 487.189 145.913C485.443 145.072 483.697 144.652 481.951 144.652C480.14 144.652 478.556 145.04 477.198 145.816C475.84 146.527 475.161 147.465 475.161 148.629C475.161 149.728 475.711 150.601 476.81 151.248C477.974 151.895 479.526 152.477 481.466 152.994L488.741 154.74C493.591 155.904 497.18 157.779 499.508 160.366C501.901 162.888 503.097 165.895 503.097 169.387C503.097 171.456 502.612 173.429 501.642 175.304C500.672 177.179 499.282 178.861 497.471 180.348C495.725 181.771 493.591 182.902 491.069 183.743C488.612 184.584 485.863 185.004 482.824 185.004ZM510.896 114H523.603V133.497L522.827 142.13H523.603C524.961 139.867 526.901 138.024 529.423 136.601C532.009 135.114 534.887 134.37 538.056 134.37C544.199 134.37 548.726 136.181 551.636 139.802C554.61 143.423 556.098 148.37 556.098 154.643V183.452H543.391V156.195C543.391 152.897 542.615 150.407 541.063 148.726C539.511 146.98 537.344 146.107 534.564 146.107C532.818 146.107 531.266 146.495 529.908 147.271C528.55 147.982 527.386 148.985 526.416 150.278C525.51 151.571 524.799 153.091 524.282 154.837C523.829 156.518 523.603 158.329 523.603 160.269V183.452H510.896V114ZM595.415 178.408H594.639C593.152 180.219 591.341 181.771 589.207 183.064C587.138 184.357 584.454 185.004 581.156 185.004C578.699 185.004 576.371 184.584 574.172 183.743C572.038 182.967 570.163 181.868 568.546 180.445C566.93 179.022 565.669 177.309 564.763 175.304C563.858 173.299 563.405 171.101 563.405 168.708C563.405 166.251 563.89 164.052 564.86 162.112C565.83 160.107 567.188 158.394 568.934 156.971C570.68 155.548 572.717 154.481 575.045 153.77C577.438 152.994 580.025 152.606 582.805 152.606C585.909 152.606 588.464 152.865 590.468 153.382C592.473 153.835 594.122 154.32 595.415 154.837V153.382C595.415 150.86 594.413 148.791 592.408 147.174C590.404 145.493 587.914 144.652 584.939 144.652C580.542 144.652 576.824 146.495 573.784 150.181L564.569 143.876C569.613 137.539 576.5 134.37 585.23 134.37C592.602 134.37 598.228 136.116 602.108 139.608C605.988 143.035 607.928 148.144 607.928 154.934V183.452H595.415V178.408ZM595.415 164.149C593.928 163.438 592.376 162.888 590.759 162.5C589.207 162.047 587.494 161.821 585.618 161.821C582.579 161.821 580.219 162.5 578.537 163.858C576.921 165.151 576.112 166.768 576.112 168.708C576.112 170.648 576.888 172.2 578.44 173.364C580.057 174.528 581.9 175.11 583.969 175.11C585.651 175.11 587.203 174.819 588.625 174.237C590.048 173.59 591.244 172.782 592.214 171.812C593.249 170.777 594.025 169.613 594.542 168.32C595.124 166.962 595.415 165.572 595.415 164.149ZM618.031 114H630.738V151.83H631.32L647.228 135.922H662.942V136.698L645.288 153.867L664.397 182.676V183.452H649.362L636.364 162.597L630.738 168.126V183.452H618.031V114Z" fill="black"/>
<path d="M330.653 448.157H105.428V581.906C124.832 564.581 152.552 552.8 186.509 552.8C252.344 552.8 291.152 595.073 291.152 663.68C291.152 712.19 273.827 755.849 232.94 800.894L184.43 770.402C214.922 739.217 235.712 705.26 235.712 662.987C235.712 622.793 215.615 601.31 180.272 601.31C151.166 601.31 122.753 621.407 105.428 652.592V830H49.2951V712.19C24.3471 734.366 -8.91687 748.226 -50.4969 748.226C-121.183 748.226 -180.088 708.032 -180.088 628.337C-180.088 552.8 -127.42 508.448 -37.3299 508.448C-13.7679 508.448 7.71511 511.22 25.0401 515.378L20.1891 565.967C4.25011 561.809 -15.1539 559.037 -35.9439 559.037C-92.7699 559.037 -123.955 583.985 -123.955 630.416C-123.955 676.154 -92.0769 698.33 -50.4969 698.33C-8.22388 698.33 28.5051 674.768 49.2951 644.969V448.157H-211.966V398.954H330.653V448.157Z" fill="url(#paint0_linear_1493_34)"/>
<path d="M327.616 476.5L319.616 482L313.116 486.5L306.616 492L300.116 498L294.616 503.5L291.616 507L288.616 511L286.616 514L285.116 517L284.116 518.5L283.116 520.5L281.616 524C189.846 440.97 122.548 379.16 77.1005 314.484C48.2585 273.406 36.8965 245.438 36.8965 219.218C36.8965 192.124 53.5025 174.644 83.2185 174.644C108.564 174.644 132.162 189.502 154.886 215.722C202.956 192.998 223.932 157.164 223.932 109.968C223.932 83.748 217.814 54.906 209.074 37.426H0.188477V-24.628H370.764V37.426H281.616C290.356 61.898 293.852 87.244 293.852 118.708C293.852 213.1 233.546 263.792 143.524 302.248C191.594 359.058 258.57 417.942 327.616 476.5Z" fill="url(#paint1_linear_1493_34)"/>
<path d="M672.103 283.404V722H607.627V468.076C578.971 480.016 546.335 487.18 497.779 487.18C452.407 487.18 407.831 477.628 369.623 460.116C301.963 497.528 278.083 517.428 278.083 565.188C278.083 613.744 313.903 640.012 372.807 640.012C383.951 640.012 392.707 639.216 400.667 636.828C397.483 628.072 395.891 617.724 395.891 607.376C395.891 577.128 416.587 559.616 446.835 559.616C488.227 559.616 513.699 591.456 513.699 621.704C513.699 643.992 496.983 663.892 471.511 675.832C485.839 705.284 500.963 728.368 522.455 761.8L464.347 789.66C446.039 755.432 430.119 722 419.771 692.548C407.035 694.14 391.911 695.732 377.583 695.732C290.023 695.732 212.811 650.36 212.811 565.984C212.811 507.08 240.671 474.444 317.883 431.46C269.327 399.62 243.855 366.188 243.855 318.428C243.855 261.912 286.043 218.928 367.235 218.928C439.671 218.928 488.227 253.156 488.227 320.02C488.227 366.188 464.347 397.232 423.751 424.296C446.039 429.868 465.939 432.256 491.411 432.256C533.599 432.256 574.195 422.704 607.627 402.008V283.404H542.355V226.888H754.091V283.404H672.103ZM305.147 322.408C305.147 357.432 332.211 382.108 368.031 402.008C407.831 376.536 426.935 351.064 426.935 321.612C426.935 292.16 411.015 270.668 365.643 270.668C329.027 270.668 305.147 289.772 305.147 322.408Z" fill="url(#paint2_linear_1493_34)"/>
<path d="M366 353C379.807 353 391 341.807 391 328C391 314.193 379.807 303 366 303C352.193 303 341 314.193 341 328C341 341.807 352.193 353 366 353Z" fill="url(#paint3_linear_1493_34)"/>
</g>
<defs>
<linearGradient id="paint0_linear_1493_34" x1="53.9999" y1="302" x2="53.9999" y2="868" gradientUnits="userSpaceOnUse">
<stop stop-color="#DADADA"/>
<stop offset="0.655"/>
</linearGradient>
<linearGradient id="paint1_linear_1493_34" x1="179" y1="-73" x2="179" y2="493" gradientUnits="userSpaceOnUse">
<stop stop-color="#DADADA"/>
<stop offset="0.655"/>
</linearGradient>
<linearGradient id="paint2_linear_1493_34" x1="457.5" y1="-42" x2="457.5" y2="924" gradientUnits="userSpaceOnUse">
<stop stop-color="#DADADA"/>
<stop offset="0.655"/>
</linearGradient>
<linearGradient id="paint3_linear_1493_34" x1="366" y1="303" x2="366" y2="353" gradientUnits="userSpaceOnUse">
<stop stop-color="#A9A9A9"/>
<stop offset="1" stop-color="#434343"/>
</linearGradient>
<clipPath id="clip0_1493_34">
<rect width="720" height="720" fill="white"/>
</clipPath>
</defs>
</svg>
